<svg id="svg" version="1.1" xmlns="http://www.w3.org/2000/svg" xmlns:xlink="http://www.w3.org/1999/xlink" width="400" height="400" viewBox="0, 0, 400,400"><g id="svgg"><path id="path0" d="M114.600 112.318 C 98.252 128.384,79.606 140.833,61.800 147.570 C 60.480 148.069,59.040 148.635,58.600 148.828 C 57.334 149.381,47.040 152.549,43.084 153.603 C 40.474 154.298,39.834 156.303,38.234 168.800 C 31.211 223.660,63.024 277.760,114.400 298.326 L 118.600 300.007 238.200 299.904 C 352.462 299.805,357.871 299.768,359.400 299.079 C 361.423 298.167,363.034 296.644,364.137 294.600 L 365.000 293.000 365.113 204.200 C 365.237 107.704,365.369 113.277,362.875 110.362 C 359.887 106.872,373.515 107.218,239.000 107.213 L 119.800 107.208 114.600 112.318 M339.168 122.300 C 339.151 122.465,334.992 126.200,329.926 130.600 C 315.975 142.717,305.264 152.038,293.614 162.200 C 287.814 167.260,280.787 173.380,278.001 175.800 C 275.214 178.220,268.193 184.340,262.399 189.400 C 234.902 213.413,238.366 211.896,229.400 203.853 C 227.405 202.064,220.505 195.936,214.066 190.236 C 200.826 178.514,201.599 179.426,201.603 175.526 C 201.608 169.660,199.096 154.000,198.150 154.000 C 197.567 154.000,189.533 151.696,185.676 150.423 C 168.916 144.890,153.245 136.330,142.798 127.000 C 140.335 124.800,138.157 122.940,137.960 122.867 C 135.904 122.105,148.018 122.000,238.400 122.000 C 293.840 122.000,339.186 122.135,339.168 122.300 M124.019 126.000 C 136.050 136.956,151.737 147.238,166.000 153.517 C 166.990 153.952,168.610 154.673,169.600 155.117 C 172.251 156.308,175.425 157.475,182.800 159.970 C 190.931 162.721,190.178 162.141,190.734 166.082 C 198.052 218.002,169.968 267.596,121.854 287.722 L 118.307 289.205 114.612 287.585 C 78.870 271.909,52.791 236.318,47.945 196.600 C 47.190 190.407,47.311 174.787,48.159 169.000 C 49.024 163.102,49.338 162.401,51.400 161.769 C 58.001 159.745,61.293 158.631,65.296 157.066 C 84.755 149.457,102.824 138.189,117.118 124.748 C 120.022 122.017,119.552 121.932,124.019 126.000 M350.801 163.700 C 350.802 181.795,350.921 214.166,351.067 235.636 C 351.258 263.934,351.209 274.747,350.889 274.945 C 350.395 275.250,350.579 275.402,339.040 265.200 C 334.437 261.130,328.944 256.287,326.835 254.439 C 324.726 252.590,321.830 250.052,320.400 248.798 C 318.970 247.545,314.470 243.563,310.400 239.949 C 306.330 236.336,298.500 229.438,293.000 224.620 C 267.866 202.603,268.444 203.189,270.300 201.606 C 271.589 200.506,277.093 195.635,279.398 193.553 C 280.279 192.757,285.320 188.275,290.600 183.592 C 295.880 178.908,301.640 173.786,303.400 172.208 C 305.160 170.630,307.410 168.633,308.400 167.769 C 309.390 166.906,310.290 166.104,310.400 165.986 C 310.699 165.666,324.616 153.275,327.006 151.200 C 328.146 150.210,332.819 146.070,337.391 142.000 C 348.845 131.803,350.012 130.800,350.432 130.800 C 350.653 130.800,350.800 143.966,350.801 163.700 M116.508 140.048 C 104.481 151.069,92.043 159.241,77.000 166.007 C 75.153 166.837,68.791 169.139,66.113 169.946 C 62.812 170.940,62.911 170.761,62.054 177.221 C 57.301 213.030,76.497 250.925,108.600 269.106 C 117.984 274.420,117.993 274.421,126.108 270.492 C 150.282 258.790,168.348 236.137,174.987 209.200 C 177.433 199.276,178.330 182.799,176.882 174.400 C 176.245 170.701,176.359 170.804,171.000 169.090 C 155.047 163.988,136.584 152.741,122.754 139.700 C 119.542 136.672,120.234 136.633,116.508 140.048 M158.720 184.536 C 161.404 187.250,163.600 189.637,163.600 189.840 C 163.600 190.291,115.915 238.000,115.464 238.000 C 114.966 238.000,81.200 203.958,81.200 203.457 C 81.200 202.898,90.841 193.200,91.397 193.200 C 91.621 193.200,97.023 198.420,103.400 204.800 C 109.777 211.180,115.273 216.400,115.612 216.400 C 115.952 216.400,124.413 208.145,134.415 198.056 C 144.417 187.967,152.879 179.687,153.220 179.656 C 153.562 179.625,156.037 181.821,158.720 184.536 M203.829 200.500 C 206.996 203.135,207.009 202.991,203.300 206.264 C 201.595 207.769,200.088 209.154,199.950 209.343 C 199.372 210.135,199.127 208.557,199.531 206.653 C 199.771 205.524,200.190 203.205,200.463 201.500 C 201.052 197.818,200.723 197.916,203.829 200.500 M264.000 218.664 C 267.410 221.663,271.458 225.215,272.996 226.558 C 274.533 227.901,276.693 229.822,277.796 230.827 C 278.898 231.832,284.300 236.596,289.800 241.414 C 295.300 246.232,299.890 250.270,300.000 250.387 C 300.110 250.505,300.920 251.214,301.800 251.963 C 302.680 252.712,304.660 254.446,306.200 255.816 C 307.740 257.186,310.718 259.813,312.817 261.654 C 330.496 277.151,338.800 284.567,338.800 284.858 C 338.800 285.047,296.035 285.200,243.400 285.200 C 190.930 285.200,148.008 285.065,148.017 284.900 C 148.027 284.735,149.242 283.749,150.717 282.709 C 165.003 272.637,177.916 257.971,186.946 241.564 C 187.926 239.785,189.210 238.242,190.899 236.814 C 192.274 235.651,194.840 233.397,196.600 231.806 C 206.292 223.043,217.310 213.600,217.842 213.600 C 218.179 213.600,221.682 216.506,225.627 220.057 C 238.514 231.659,236.335 231.965,253.788 216.100 C 257.743 212.505,256.697 212.242,264.000 218.664 " stroke="none" fill="#fbf8fa" fill-rule="evenodd"></path><path id="path1" d="M0.000 200.000 L 0.000 400.000 200.000 400.000 L 400.000 400.000 400.000 200.000 L 400.000 0.000 200.000 0.000 L 0.000 0.000 0.000 200.000 M359.822 107.954 C 361.893 108.895,364.174 111.554,364.766 113.717 C 365.109 114.969,365.198 138.136,365.113 204.200 L 365.000 293.000 364.137 294.600 C 363.034 296.644,361.423 298.167,359.400 299.079 C 357.871 299.768,352.462 299.805,238.200 299.904 L 118.600 300.007 114.400 298.326 C 63.024 277.760,31.211 223.660,38.234 168.800 C 39.834 156.303,40.474 154.298,43.084 153.603 C 47.040 152.549,57.334 149.381,58.600 148.828 C 59.040 148.635,60.480 148.069,61.800 147.570 C 79.606 140.833,98.252 128.384,114.600 112.318 L 119.800 107.208 239.000 107.213 C 353.937 107.217,358.258 107.244,359.822 107.954 M137.600 122.367 C 137.600 122.568,137.762 122.793,137.960 122.867 C 138.157 122.940,140.335 124.800,142.798 127.000 C 153.245 136.330,168.916 144.890,185.676 150.423 C 189.533 151.696,197.567 154.000,198.150 154.000 C 199.096 154.000,201.608 169.660,201.603 175.526 C 201.599 179.426,200.826 178.514,214.066 190.236 C 220.505 195.936,227.405 202.064,229.400 203.853 C 237.376 211.008,237.633 211.000,246.432 203.333 C 249.420 200.730,256.605 194.460,262.399 189.400 C 268.193 184.340,275.214 178.220,278.001 175.800 C 280.787 173.380,287.814 167.260,293.614 162.200 C 305.264 152.038,315.975 142.717,329.926 130.600 C 334.992 126.200,339.151 122.465,339.168 122.300 C 339.186 122.135,293.840 122.000,238.400 122.000 C 177.576 122.000,137.600 122.145,137.600 122.367 M117.118 124.748 C 104.485 136.627,89.952 146.139,71.848 154.379 C 66.784 156.684,60.054 159.116,51.400 161.769 C 49.338 162.401,49.024 163.102,48.159 169.000 C 41.144 216.845,69.763 267.915,114.612 287.585 L 118.307 289.205 121.854 287.722 C 169.968 267.596,198.052 218.002,190.734 166.082 C 190.178 162.141,190.931 162.721,182.800 159.970 C 175.425 157.475,172.251 156.308,169.600 155.117 C 168.610 154.673,166.990 153.952,166.000 153.517 C 151.737 147.238,136.050 136.956,124.019 126.000 C 119.552 121.932,120.022 122.017,117.118 124.748 M347.884 132.700 C 346.684 133.745,341.962 137.930,337.391 142.000 C 332.819 146.070,328.146 150.210,327.006 151.200 C 324.616 153.275,310.699 165.666,310.400 165.986 C 310.290 166.104,309.390 166.906,308.400 167.769 C 307.410 168.633,305.160 170.630,303.400 172.208 C 301.640 173.786,295.880 178.908,290.600 183.592 C 285.320 188.275,280.279 192.757,279.398 193.553 C 277.093 195.635,271.589 200.506,270.300 201.606 C 268.444 203.189,267.866 202.603,293.000 224.620 C 298.500 229.438,306.330 236.336,310.400 239.949 C 314.470 243.563,318.970 247.545,320.400 248.798 C 321.830 250.052,324.726 252.590,326.835 254.439 C 328.944 256.287,334.437 261.130,339.040 265.200 C 350.579 275.402,350.395 275.250,350.889 274.945 C 351.209 274.747,351.258 263.934,351.067 235.636 C 350.921 214.166,350.802 181.795,350.801 163.700 C 350.800 143.966,350.653 130.800,350.432 130.800 C 350.230 130.800,349.083 131.655,347.884 132.700 M122.754 139.700 C 136.584 152.741,155.047 163.988,171.000 169.090 C 176.359 170.804,176.245 170.701,176.882 174.400 C 178.330 182.799,177.433 199.276,174.987 209.200 C 168.348 236.137,150.282 258.790,126.108 270.492 C 117.993 274.421,117.984 274.420,108.600 269.106 C 76.497 250.925,57.301 213.030,62.054 177.221 C 62.911 170.761,62.812 170.940,66.113 169.946 C 68.791 169.139,75.153 166.837,77.000 166.007 C 92.043 159.241,104.481 151.069,116.508 140.048 C 120.234 136.633,119.542 136.672,122.754 139.700 M134.415 198.056 C 124.413 208.145,115.952 216.400,115.612 216.400 C 115.273 216.400,109.777 211.180,103.400 204.800 C 97.023 198.420,91.621 193.200,91.397 193.200 C 90.841 193.200,81.200 202.898,81.200 203.457 C 81.200 203.958,114.966 238.000,115.464 238.000 C 115.915 238.000,163.600 190.291,163.600 189.840 C 163.600 189.164,153.851 179.599,153.220 179.656 C 152.879 179.687,144.417 187.967,134.415 198.056 M200.463 201.500 C 200.190 203.205,199.771 205.524,199.531 206.653 C 199.127 208.557,199.372 210.135,199.950 209.343 C 200.088 209.154,201.595 207.769,203.300 206.264 C 207.009 202.991,206.996 203.135,203.829 200.500 C 200.723 197.916,201.052 197.818,200.463 201.500 M253.788 216.100 C 236.335 231.965,238.514 231.659,225.627 220.057 C 221.682 216.506,218.179 213.600,217.842 213.600 C 217.310 213.600,206.292 223.043,196.600 231.806 C 194.840 233.397,192.274 235.651,190.899 236.814 C 189.210 238.242,187.926 239.785,186.946 241.564 C 177.916 257.971,165.003 272.637,150.717 282.709 C 149.242 283.749,148.027 284.735,148.017 284.900 C 148.008 285.065,190.930 285.200,243.400 285.200 C 296.035 285.200,338.800 285.047,338.800 284.858 C 338.800 284.567,330.496 277.151,312.817 261.654 C 310.718 259.813,307.740 257.186,306.200 255.816 C 304.660 254.446,302.680 252.712,301.800 251.963 C 300.920 251.214,300.110 250.505,300.000 250.387 C 299.890 250.270,295.300 246.232,289.800 241.414 C 284.300 236.596,278.898 231.832,277.796 230.827 C 276.693 229.822,274.533 227.901,272.996 226.558 C 271.458 225.215,267.410 221.663,264.000 218.664 C 256.697 212.242,257.743 212.505,253.788 216.100 " stroke="none" fill="#cd2c85" fill-rule="evenodd"></path></g></svg>