<svg id="svg" version="1.1" xmlns="http://www.w3.org/2000/svg" xmlns:xlink="http://www.w3.org/1999/xlink" width="400" height="400" viewBox="0, 0, 400,400"><g id="svgg"><path id="path0" d="M162.329 108.205 C 162.216 108.317,160.701 108.570,158.962 108.765 C 137.826 111.145,118.433 125.710,111.249 144.600 C 110.747 145.920,110.197 147.271,110.026 147.602 C 109.705 148.225,108.663 152.202,107.889 155.759 C 107.265 158.627,107.265 240.573,107.889 243.441 C 108.714 247.233,109.696 250.998,109.966 251.400 C 110.113 251.620,110.473 252.520,110.767 253.400 C 116.526 270.671,133.366 284.810,154.000 289.700 L 157.800 290.600 199.600 290.600 L 241.400 290.600 245.467 289.686 C 252.486 288.108,258.502 285.805,263.437 282.807 C 264.892 281.923,266.172 281.200,266.283 281.200 C 266.740 281.200,273.360 275.797,275.498 273.680 C 281.375 267.860,286.428 260.074,288.789 253.200 C 289.281 251.770,289.824 250.240,289.997 249.800 C 290.587 248.300,291.142 245.804,291.597 242.600 C 291.846 240.840,292.219 238.531,292.425 237.469 C 292.635 236.387,292.790 224.439,292.777 210.269 C 292.751 181.990,292.835 182.837,289.800 180.316 C 287.528 178.428,286.952 178.313,277.231 177.799 C 261.252 176.954,260.087 175.936,258.015 161.000 C 256.300 148.636,255.727 146.421,252.635 140.200 C 245.466 125.779,229.860 113.884,212.000 109.228 C 211.230 109.028,209.859 108.669,208.954 108.432 C 207.292 107.996,162.754 107.779,162.329 108.205 M204.314 156.114 C 213.393 160.897,213.253 172.379,204.064 176.633 L 201.929 177.622 182.464 177.511 C 160.718 177.387,161.643 177.505,158.602 174.473 C 151.877 167.771,154.856 157.496,164.200 155.163 C 164.860 154.998,173.680 154.894,183.800 154.932 L 202.200 155.000 204.314 156.114 M238.944 222.800 C 247.117 227.749,246.643 238.475,238.064 242.688 L 235.800 243.800 200.332 243.906 C 165.569 244.011,164.821 243.997,162.700 243.203 C 154.530 240.146,152.316 230.820,158.331 224.805 C 162.149 220.987,159.039 221.244,200.416 221.327 L 236.632 221.400 238.944 222.800 " stroke="none" fill="#fcfbfa" fill-rule="evenodd"></path><path id="path1" d="M107.000 26.463 C 94.703 27.198,88.034 28.139,80.000 30.272 C 54.351 37.080,34.177 59.063,28.859 86.000 C 26.212 99.405,26.200 99.918,26.200 200.400 C 26.200 302.431,26.172 301.394,29.374 316.600 C 31.102 324.808,37.240 338.748,40.382 341.600 C 40.503 341.710,41.412 342.878,42.401 344.195 C 46.943 350.243,56.847 359.180,62.600 362.422 C 72.294 367.885,78.720 370.086,90.400 371.945 C 102.653 373.895,107.547 373.987,200.192 373.994 C 296.532 374.001,299.982 373.915,314.000 371.153 C 331.332 367.738,345.535 359.222,356.284 345.800 C 357.693 344.040,359.069 342.326,359.341 341.991 C 360.494 340.572,362.400 337.626,362.400 337.261 C 362.400 337.044,362.539 336.807,362.709 336.733 C 364.617 335.911,369.636 322.183,371.331 313.153 C 373.914 299.383,374.011 295.289,374.011 200.000 C 374.011 108.081,373.871 101.169,371.766 89.000 C 369.859 77.973,367.788 72.123,362.422 62.600 C 359.180 56.848,350.248 46.948,344.195 42.400 C 342.878 41.410,341.562 40.375,341.271 40.100 C 340.981 39.825,340.589 39.600,340.400 39.600 C 340.211 39.600,339.819 39.369,339.529 39.088 C 336.112 35.776,323.021 30.528,314.000 28.855 C 298.876 26.049,296.188 25.984,198.600 26.060 C 151.300 26.097,110.080 26.278,107.000 26.463 M210.600 108.000 C 210.736 108.220,211.557 108.400,212.424 108.400 C 213.291 108.400,214.000 108.580,214.000 108.800 C 214.000 109.020,214.315 109.203,214.700 109.206 C 215.518 109.213,218.261 110.127,218.659 110.526 C 218.810 110.677,219.203 110.800,219.533 110.800 C 221.396 110.800,232.111 116.817,237.600 120.945 C 246.485 127.628,255.101 139.873,256.777 148.200 C 257.042 149.520,257.414 151.230,257.603 152.000 C 257.792 152.770,258.147 155.020,258.391 157.000 C 259.125 162.944,259.623 166.132,260.022 167.428 C 260.230 168.104,260.400 168.954,260.400 169.316 C 260.400 171.145,264.020 175.600,265.507 175.600 C 265.925 175.600,266.401 175.735,266.565 175.900 C 267.033 176.370,275.270 177.092,281.000 177.166 C 288.528 177.262,293.200 180.104,293.200 184.589 C 293.200 185.119,293.405 185.680,293.656 185.835 C 293.990 186.041,294.043 189.129,293.855 197.358 C 293.714 203.541,293.482 216.030,293.341 225.112 C 293.200 234.194,292.930 241.720,292.742 241.836 C 292.554 241.952,292.400 242.609,292.400 243.295 C 292.400 243.982,292.232 245.096,292.027 245.772 C 291.822 246.447,291.441 247.810,291.182 248.800 C 290.922 249.790,290.561 250.960,290.380 251.400 C 290.198 251.840,289.929 252.650,289.780 253.200 C 286.096 266.850,269.564 282.822,253.279 288.464 C 244.273 291.585,244.251 291.586,199.800 291.586 C 155.658 291.586,155.614 291.584,146.600 288.604 C 129.797 283.049,115.340 269.054,109.613 252.800 C 109.341 252.030,108.970 251.040,108.787 250.600 C 108.605 250.160,108.241 248.810,107.979 247.600 C 107.717 246.390,107.357 245.040,107.180 244.600 C 106.383 242.621,106.241 235.809,106.241 199.600 C 106.241 163.167,106.383 156.515,107.199 154.600 C 107.529 153.826,107.802 152.706,108.274 150.200 C 108.399 149.540,108.625 148.820,108.778 148.600 C 108.931 148.380,109.306 147.390,109.611 146.400 C 114.209 131.479,130.386 115.731,146.200 110.784 C 147.740 110.302,149.313 109.749,149.695 109.554 C 150.077 109.359,150.921 109.200,151.571 109.200 C 152.221 109.200,152.864 109.020,153.000 108.800 C 153.136 108.580,154.216 108.400,155.400 108.400 C 156.584 108.400,157.664 108.220,157.800 108.000 C 157.961 107.740,167.196 107.600,184.200 107.600 C 201.204 107.600,210.439 107.740,210.600 108.000 M163.100 156.279 C 162.495 156.375,162.000 156.621,162.000 156.827 C 162.000 157.032,161.739 157.200,161.420 157.200 C 160.681 157.200,157.513 160.285,156.902 161.600 C 153.791 168.295,157.477 175.328,164.800 176.670 C 168.146 177.283,202.853 176.690,203.984 176.000 C 209.375 172.711,212.077 164.407,208.800 161.200 C 208.687 161.090,208.126 160.370,207.552 159.600 C 206.978 158.830,205.719 157.750,204.754 157.200 L 203.000 156.200 183.600 156.153 C 172.930 156.127,163.705 156.184,163.100 156.279 M162.716 222.774 C 161.680 223.179,160.542 223.801,160.188 224.155 C 159.833 224.510,159.400 224.800,159.226 224.800 C 158.576 224.800,156.752 227.958,156.121 230.177 C 154.831 234.711,158.576 242.000,162.194 242.000 C 162.527 242.000,162.800 242.180,162.800 242.400 C 162.800 243.319,235.784 242.906,237.762 241.976 C 239.665 241.081,242.800 238.014,242.800 237.047 C 242.800 236.717,242.980 236.336,243.200 236.200 C 243.984 235.715,243.676 229.360,242.792 227.786 C 241.279 225.092,238.794 223.166,235.923 222.461 C 232.330 221.579,165.037 221.867,162.716 222.774 " stroke="none" fill="#fb7b13" fill-rule="evenodd"></path><path id="path2" d="M100.200 25.200 C 100.064 25.420,98.343 25.600,96.376 25.600 C 94.259 25.600,92.800 25.763,92.800 26.000 C 92.800 26.226,91.667 26.400,90.200 26.400 C 88.733 26.400,87.600 26.574,87.600 26.800 C 87.600 27.020,86.925 27.202,86.100 27.203 C 83.520 27.209,80.411 27.694,80.634 28.055 C 80.751 28.245,80.217 28.400,79.447 28.400 C 78.677 28.400,77.936 28.580,77.800 28.800 C 77.664 29.020,77.111 29.200,76.571 29.200 C 76.031 29.200,75.277 29.359,74.895 29.553 C 74.513 29.748,73.660 30.129,73.000 30.400 C 72.340 30.671,71.487 31.052,71.105 31.247 C 70.723 31.441,70.138 31.600,69.805 31.600 C 69.472 31.600,69.200 31.780,69.200 32.000 C 69.200 32.220,68.840 32.400,68.400 32.400 C 67.960 32.400,67.600 32.580,67.600 32.800 C 67.600 33.020,67.366 33.200,67.080 33.200 C 66.344 33.200,64.407 34.141,64.403 34.500 C 64.401 34.665,64.040 34.800,63.600 34.800 C 63.160 34.800,62.800 34.980,62.800 35.200 C 62.800 35.420,62.530 35.600,62.200 35.600 C 61.870 35.600,61.600 35.780,61.600 36.000 C 61.600 36.220,61.330 36.400,61.000 36.400 C 60.670 36.400,60.400 36.580,60.400 36.800 C 60.400 37.020,60.130 37.200,59.800 37.200 C 59.470 37.200,59.200 37.350,59.200 37.532 C 59.200 37.715,58.705 38.119,58.100 38.430 C 57.495 38.740,56.709 39.311,56.353 39.697 C 55.997 40.084,55.533 40.400,55.322 40.400 C 54.194 40.400,40.400 54.194,40.400 55.322 C 40.400 55.533,40.084 55.997,39.697 56.353 C 39.311 56.709,38.740 57.495,38.430 58.100 C 38.119 58.705,37.715 59.200,37.532 59.200 C 37.350 59.200,37.200 59.388,37.200 59.617 C 37.200 59.846,36.840 60.420,36.400 60.892 C 35.960 61.364,35.600 61.987,35.600 62.275 C 35.600 62.564,35.420 62.800,35.200 62.800 C 34.980 62.800,34.800 63.145,34.800 63.567 C 34.800 63.988,34.665 64.393,34.500 64.467 C 34.068 64.659,32.400 67.972,32.400 68.638 C 32.400 68.947,32.220 69.200,32.000 69.200 C 31.780 69.200,31.600 69.472,31.600 69.805 C 31.600 70.138,31.392 70.813,31.138 71.305 C 30.144 73.226,30.000 73.616,30.000 74.371 C 30.000 74.801,29.820 75.264,29.600 75.400 C 29.380 75.536,29.200 76.076,29.200 76.600 C 29.200 77.124,29.020 77.664,28.800 77.800 C 28.580 77.936,28.400 78.566,28.400 79.200 C 28.400 79.834,28.239 80.452,28.042 80.574 C 27.845 80.696,27.556 82.238,27.400 84.000 C 27.244 85.762,26.955 87.304,26.758 87.426 C 26.561 87.548,26.400 88.807,26.400 90.224 C 26.400 91.675,26.225 92.800,26.000 92.800 C 25.763 92.800,25.600 94.259,25.600 96.376 C 25.600 98.343,25.420 100.064,25.200 100.200 C 24.646 100.543,24.646 299.857,25.200 300.200 C 25.420 300.336,25.600 302.057,25.600 304.024 C 25.600 306.141,25.763 307.600,26.000 307.600 C 26.226 307.600,26.400 308.733,26.400 310.200 C 26.400 311.630,26.554 312.800,26.741 312.800 C 26.929 312.800,27.195 314.133,27.333 315.763 C 27.471 317.393,27.749 319.148,27.950 319.663 C 28.152 320.178,28.536 321.410,28.804 322.400 C 29.304 324.247,29.825 325.672,30.447 326.895 C 30.641 327.277,30.800 327.952,30.800 328.395 C 30.800 328.838,30.936 329.200,31.102 329.200 C 31.269 329.200,31.637 329.785,31.921 330.500 C 32.794 332.695,34.983 336.992,35.300 337.133 C 35.465 337.207,35.600 337.622,35.600 338.057 C 35.600 338.492,35.780 338.736,36.000 338.600 C 36.220 338.464,36.400 338.633,36.400 338.976 C 36.400 339.319,36.580 339.600,36.800 339.600 C 37.020 339.600,37.200 339.842,37.200 340.138 C 37.200 340.434,37.560 341.002,38.000 341.400 C 38.440 341.798,38.800 342.326,38.800 342.574 C 38.800 342.821,39.160 343.283,39.600 343.600 C 40.040 343.917,40.400 344.370,40.400 344.606 C 40.400 345.585,53.204 358.799,54.152 358.800 C 54.398 358.801,55.140 359.266,55.800 359.835 C 56.460 360.404,57.495 361.163,58.100 361.521 C 58.705 361.879,59.200 362.314,59.200 362.486 C 59.200 362.659,59.388 362.800,59.617 362.800 C 59.846 362.800,60.420 363.160,60.892 363.600 C 61.364 364.040,61.987 364.400,62.275 364.400 C 62.564 364.400,62.800 364.580,62.800 364.800 C 62.800 365.020,63.124 365.200,63.520 365.200 C 63.916 365.200,64.411 365.363,64.620 365.562 C 65.310 366.220,68.013 367.600,68.612 367.600 C 68.935 367.600,69.200 367.780,69.200 368.000 C 69.200 368.220,69.560 368.400,70.000 368.400 C 70.440 368.400,70.800 368.580,70.800 368.800 C 70.800 369.020,71.162 369.200,71.605 369.200 C 72.048 369.200,72.768 369.380,73.205 369.600 C 73.642 369.820,74.358 370.180,74.795 370.400 C 75.232 370.620,76.031 370.800,76.571 370.800 C 77.111 370.800,77.664 370.980,77.800 371.200 C 77.936 371.420,78.566 371.600,79.200 371.600 C 79.834 371.600,80.449 371.756,80.567 371.946 C 80.684 372.136,81.460 372.399,82.290 372.530 C 85.724 373.070,86.656 373.256,87.760 373.619 C 88.398 373.828,89.757 374.000,90.780 374.000 C 91.803 374.000,92.865 374.225,93.140 374.500 C 93.788 375.148,294.206 375.454,301.800 374.819 C 306.536 374.423,309.694 374.013,314.000 373.234 C 315.210 373.015,316.830 372.726,317.600 372.591 C 318.370 372.456,319.360 372.203,319.800 372.028 C 321.580 371.322,323.505 370.800,324.328 370.800 C 324.808 370.800,325.200 370.620,325.200 370.400 C 325.200 370.180,325.549 370.000,325.976 370.000 C 326.403 370.000,326.864 369.820,327.000 369.600 C 327.136 369.380,327.687 369.200,328.224 369.200 C 328.761 369.200,329.200 369.020,329.200 368.800 C 329.200 368.580,329.560 368.400,330.000 368.400 C 330.440 368.400,330.800 368.220,330.800 368.000 C 330.800 367.780,331.053 367.600,331.362 367.600 C 332.028 367.600,335.341 365.932,335.533 365.500 C 335.607 365.335,336.012 365.200,336.433 365.200 C 336.855 365.200,337.200 365.020,337.200 364.800 C 337.200 364.580,337.520 364.400,337.912 364.400 C 338.303 364.400,338.883 364.040,339.200 363.600 C 339.517 363.160,340.107 362.800,340.512 362.800 C 340.916 362.800,341.153 362.647,341.037 362.460 C 340.922 362.273,341.316 361.870,341.914 361.563 C 342.511 361.256,343.270 360.734,343.600 360.403 C 343.930 360.071,344.824 359.452,345.587 359.026 C 346.349 358.601,347.712 357.521,348.614 356.626 C 349.516 355.732,351.052 354.272,352.027 353.382 C 354.735 350.910,358.258 346.973,359.071 345.511 C 359.472 344.790,360.115 343.909,360.500 343.553 C 360.885 343.197,361.200 342.704,361.200 342.456 C 361.200 342.209,361.560 341.782,362.000 341.507 C 362.440 341.232,362.800 340.731,362.800 340.392 C 362.800 340.054,363.160 339.517,363.600 339.200 C 364.040 338.883,364.400 338.303,364.400 337.912 C 364.400 337.520,364.580 337.200,364.800 337.200 C 365.020 337.200,365.200 336.855,365.200 336.433 C 365.200 336.012,365.335 335.607,365.500 335.533 C 365.932 335.341,367.600 332.028,367.600 331.362 C 367.600 331.053,367.780 330.800,368.000 330.800 C 368.220 330.800,368.400 330.440,368.400 330.000 C 368.400 329.560,368.591 329.200,368.824 329.200 C 369.057 329.200,369.159 329.058,369.052 328.884 C 368.944 328.710,369.133 327.945,369.472 327.184 C 370.414 325.064,370.710 324.288,370.994 323.200 C 371.137 322.650,371.434 321.570,371.654 320.800 C 372.323 318.454,372.822 316.271,373.025 314.800 C 373.131 314.030,373.334 313.130,373.476 312.800 C 373.814 312.016,374.315 307.818,374.814 301.600 C 375.415 294.118,375.151 93.264,374.540 92.885 C 374.287 92.728,373.986 91.520,373.871 90.200 C 373.756 88.880,373.460 86.810,373.214 85.600 C 372.968 84.390,372.664 82.813,372.539 82.096 C 372.414 81.379,372.151 80.694,371.956 80.573 C 371.760 80.452,371.600 79.744,371.600 79.000 C 371.600 78.256,371.420 77.536,371.200 77.400 C 370.980 77.264,370.800 76.623,370.800 75.976 C 370.800 75.329,370.620 74.800,370.400 74.800 C 370.180 74.800,370.000 74.451,370.000 74.024 C 370.000 73.597,369.820 73.136,369.600 73.000 C 369.380 72.864,369.200 72.313,369.200 71.776 C 369.200 71.239,369.020 70.800,368.800 70.800 C 368.580 70.800,368.400 70.440,368.400 70.000 C 368.400 69.560,368.220 69.200,368.000 69.200 C 367.780 69.200,367.600 68.827,367.600 68.372 C 367.600 67.917,367.060 66.759,366.400 65.800 C 365.740 64.841,365.200 63.763,365.200 63.404 C 365.200 63.046,365.020 62.864,364.800 63.000 C 364.580 63.136,364.400 62.911,364.400 62.499 C 364.400 62.088,364.040 61.364,363.600 60.892 C 363.160 60.420,362.800 59.846,362.800 59.617 C 362.800 59.388,362.650 59.200,362.468 59.200 C 362.285 59.200,361.881 58.705,361.570 58.100 C 361.260 57.495,360.733 56.730,360.400 56.400 C 360.067 56.070,359.540 55.305,359.230 54.700 C 358.919 54.095,358.505 53.600,358.309 53.600 C 358.113 53.600,358.047 53.447,358.163 53.260 C 358.278 53.073,357.929 52.683,357.386 52.393 C 356.844 52.102,356.400 51.688,356.400 51.471 C 356.400 51.255,354.645 49.384,352.500 47.315 C 347.192 42.195,346.081 41.200,345.671 41.200 C 345.477 41.200,344.754 40.660,344.063 40.000 C 343.372 39.340,342.654 38.800,342.466 38.800 C 342.278 38.800,341.798 38.440,341.400 38.000 C 341.002 37.560,340.474 37.200,340.226 37.200 C 339.979 37.200,339.517 36.840,339.200 36.400 C 338.883 35.960,338.391 35.600,338.106 35.600 C 337.622 35.600,336.045 34.845,335.600 34.400 C 335.138 33.938,331.879 32.400,331.362 32.400 C 331.053 32.400,330.800 32.220,330.800 32.000 C 330.800 31.780,330.528 31.600,330.195 31.600 C 329.862 31.600,329.232 31.420,328.795 31.200 C 328.358 30.980,327.642 30.620,327.205 30.400 C 326.768 30.180,326.048 30.000,325.605 30.000 C 325.162 30.000,324.800 29.820,324.800 29.600 C 324.800 29.380,324.271 29.200,323.624 29.200 C 322.977 29.200,322.336 29.020,322.200 28.800 C 322.064 28.580,321.549 28.400,321.056 28.400 C 320.563 28.400,319.988 28.228,319.777 28.017 C 319.567 27.807,317.911 27.511,316.097 27.360 C 314.284 27.209,312.800 26.931,312.800 26.742 C 312.800 26.554,311.641 26.400,310.224 26.400 C 308.807 26.400,307.536 26.220,307.400 26.000 C 307.264 25.780,305.554 25.600,303.600 25.600 C 301.646 25.600,299.936 25.420,299.800 25.200 C 299.636 24.935,265.937 24.800,200.000 24.800 C 134.063 24.800,100.364 24.935,100.200 25.200 M300.000 26.198 C 302.530 26.336,304.771 26.618,304.980 26.825 C 305.189 27.031,306.573 27.200,308.056 27.200 C 309.539 27.200,310.864 27.380,311.000 27.600 C 311.136 27.820,312.036 28.000,313.000 28.000 C 313.964 28.000,314.864 28.180,315.000 28.400 C 315.136 28.620,315.946 28.800,316.800 28.800 C 317.654 28.800,318.464 28.980,318.600 29.200 C 318.736 29.420,319.366 29.600,320.000 29.600 C 320.634 29.600,321.264 29.780,321.400 30.000 C 321.536 30.220,322.076 30.400,322.600 30.400 C 323.124 30.400,323.664 30.580,323.800 30.800 C 323.936 31.020,324.399 31.200,324.828 31.200 C 325.257 31.200,326.372 31.533,327.304 31.941 C 328.237 32.348,329.981 33.113,331.181 33.641 C 332.380 34.168,334.965 35.545,336.924 36.700 C 338.884 37.855,340.559 38.800,340.647 38.800 C 340.735 38.800,341.372 39.340,342.063 40.000 C 342.754 40.660,343.472 41.200,343.659 41.200 C 343.846 41.200,344.741 41.920,345.648 42.800 C 346.555 43.680,347.451 44.400,347.639 44.400 C 348.120 44.400,355.600 51.834,355.600 52.312 C 355.600 52.527,356.320 53.445,357.200 54.352 C 358.080 55.259,358.800 56.154,358.800 56.341 C 358.800 56.528,359.340 57.246,360.000 57.937 C 360.660 58.628,361.200 59.340,361.200 59.521 C 361.200 59.701,361.515 60.200,361.900 60.628 C 362.285 61.057,363.122 62.395,363.760 63.604 C 366.593 68.969,367.200 70.205,367.200 70.614 C 367.200 70.854,367.560 71.795,368.000 72.706 C 368.440 73.616,368.800 74.552,368.800 74.786 C 368.800 75.020,368.958 75.523,369.151 75.905 C 369.735 77.061,370.400 79.404,370.400 80.305 C 370.400 80.771,370.580 81.264,370.800 81.400 C 371.020 81.536,371.200 82.231,371.200 82.944 C 371.200 83.657,371.363 84.411,371.561 84.620 C 371.933 85.011,372.281 87.212,372.632 91.400 C 372.743 92.720,372.999 94.160,373.201 94.600 C 374.551 97.540,374.551 302.460,373.201 305.400 C 372.999 305.840,372.750 307.280,372.648 308.600 C 372.545 309.920,372.259 311.990,372.011 313.200 C 371.762 314.410,371.459 316.076,371.337 316.903 C 371.215 317.729,370.955 318.505,370.758 318.626 C 370.561 318.748,370.400 319.229,370.400 319.695 C 370.400 320.596,369.735 322.939,369.151 324.095 C 368.958 324.477,368.800 324.980,368.800 325.214 C 368.800 325.448,368.440 326.384,368.000 327.294 C 367.560 328.205,367.199 329.141,367.198 329.375 C 367.196 329.609,366.910 330.340,366.561 331.000 C 366.212 331.660,365.114 333.769,364.120 335.687 C 363.127 337.604,362.063 339.381,361.757 339.636 C 361.451 339.890,361.200 340.258,361.200 340.453 C 361.200 340.648,360.660 341.372,360.000 342.063 C 359.340 342.754,358.800 343.486,358.800 343.691 C 358.800 343.895,358.080 344.797,357.200 345.695 C 356.320 346.593,355.600 347.526,355.600 347.769 C 355.600 348.330,348.252 355.600,347.685 355.600 C 347.452 355.600,346.556 356.320,345.693 357.200 C 344.831 358.080,343.932 358.800,343.696 358.800 C 343.461 358.800,342.758 359.340,342.135 360.000 C 341.512 360.660,340.799 361.200,340.550 361.200 C 340.302 361.200,339.887 361.454,339.630 361.764 C 339.373 362.074,338.136 362.859,336.881 363.509 C 335.627 364.160,333.525 365.256,332.211 365.946 C 330.897 366.636,329.626 367.200,329.386 367.200 C 329.146 367.200,328.205 367.560,327.294 368.000 C 326.384 368.440,325.448 368.800,325.214 368.800 C 324.980 368.800,324.477 368.958,324.095 369.151 C 322.939 369.735,320.596 370.400,319.695 370.400 C 319.229 370.400,318.748 370.561,318.626 370.758 C 318.505 370.955,317.729 371.215,316.903 371.337 C 316.076 371.459,314.410 371.760,313.200 372.004 C 310.545 372.541,306.502 373.074,300.600 373.665 C 294.347 374.291,105.548 374.284,99.400 373.657 C 96.980 373.411,93.830 373.109,92.400 372.988 C 90.970 372.866,89.440 372.604,89.000 372.406 C 88.560 372.208,87.435 371.945,86.500 371.823 C 82.640 371.317,81.584 371.098,81.374 370.758 C 81.252 370.561,80.780 370.400,80.324 370.400 C 79.332 370.400,72.362 368.072,71.820 367.559 C 71.611 367.362,71.161 367.199,70.820 367.198 C 70.479 367.196,69.750 366.959,69.200 366.671 C 63.285 363.574,61.494 362.561,60.822 361.935 C 60.388 361.531,59.844 361.200,59.613 361.200 C 59.382 361.200,58.628 360.660,57.937 360.000 C 57.246 359.340,56.528 358.800,56.341 358.800 C 56.154 358.800,55.259 358.080,54.352 357.200 C 53.445 356.320,52.543 355.600,52.347 355.600 C 51.899 355.600,44.400 348.129,44.400 347.683 C 44.400 347.503,43.761 346.659,42.980 345.806 C 42.199 344.953,41.260 343.748,40.894 343.128 C 40.527 342.508,40.104 342.000,39.953 342.000 C 39.495 342.000,36.687 337.230,34.420 332.600 C 32.229 328.125,31.200 325.706,31.200 325.028 C 31.200 324.709,31.020 324.336,30.800 324.200 C 30.580 324.064,30.400 323.434,30.400 322.800 C 30.400 322.166,30.220 321.536,30.000 321.400 C 29.780 321.264,29.600 320.634,29.600 320.000 C 29.600 319.366,29.420 318.736,29.200 318.600 C 28.980 318.464,28.800 317.654,28.800 316.800 C 28.800 315.946,28.620 315.136,28.400 315.000 C 28.180 314.864,28.000 313.964,28.000 313.000 C 28.000 312.036,27.820 311.136,27.600 311.000 C 27.380 310.864,27.200 309.604,27.200 308.200 C 27.200 306.796,27.020 305.536,26.800 305.400 C 26.571 305.259,26.400 303.204,26.400 300.600 C 26.400 297.996,26.229 295.941,26.000 295.800 C 25.446 295.457,25.446 104.543,26.000 104.200 C 26.227 104.060,26.400 102.070,26.400 99.600 C 26.400 97.130,26.573 95.140,26.800 95.000 C 27.020 94.864,27.200 93.514,27.200 92.000 C 27.200 90.486,27.380 89.136,27.600 89.000 C 27.820 88.864,28.000 87.964,28.000 87.000 C 28.000 86.036,28.180 85.136,28.400 85.000 C 28.620 84.864,28.800 84.054,28.800 83.200 C 28.800 82.346,28.980 81.536,29.200 81.400 C 29.420 81.264,29.600 80.634,29.600 80.000 C 29.600 79.366,29.780 78.736,30.000 78.600 C 30.220 78.464,30.400 77.924,30.400 77.400 C 30.400 76.876,30.580 76.336,30.800 76.200 C 31.020 76.064,31.200 75.601,31.200 75.172 C 31.200 73.371,37.357 60.933,38.479 60.467 C 38.656 60.393,38.800 60.097,38.800 59.809 C 38.800 59.521,39.340 58.707,40.000 58.000 C 40.660 57.293,41.200 56.540,41.200 56.326 C 41.200 56.112,41.920 55.246,42.800 54.400 C 43.680 53.554,44.400 52.685,44.400 52.467 C 44.400 51.946,51.954 44.400,52.475 44.400 C 52.697 44.400,53.356 43.895,53.940 43.279 C 54.523 42.662,55.855 41.573,56.900 40.859 C 57.945 40.146,58.800 39.390,58.800 39.181 C 58.800 38.971,59.145 38.800,59.567 38.800 C 59.988 38.800,60.393 38.656,60.467 38.479 C 60.921 37.384,73.415 31.200,75.172 31.200 C 75.601 31.200,76.064 31.020,76.200 30.800 C 76.336 30.580,76.876 30.400,77.400 30.400 C 77.924 30.400,78.464 30.220,78.600 30.000 C 78.736 29.780,79.366 29.600,80.000 29.600 C 80.634 29.600,81.264 29.420,81.400 29.200 C 81.536 28.980,82.346 28.800,83.200 28.800 C 84.054 28.800,84.864 28.620,85.000 28.400 C 85.136 28.180,86.036 28.000,87.000 28.000 C 87.964 28.000,88.864 27.820,89.000 27.600 C 89.136 27.380,90.486 27.200,92.000 27.200 C 93.514 27.200,94.864 27.020,95.000 26.800 C 95.140 26.573,97.130 26.400,99.600 26.400 C 102.082 26.400,104.059 26.227,104.201 25.998 C 104.473 25.558,291.794 25.749,300.000 26.198 " stroke="none" fill="#a8560c" fill-rule="evenodd"></path><path id="path3" d="M243.600 126.925 C 243.600 126.994,244.185 127.579,244.900 128.225 L 246.200 129.400 245.025 128.100 C 243.930 126.888,243.600 126.616,243.600 126.925 M174.327 155.500 C 179.237 155.563,187.157 155.563,191.927 155.500 C 196.697 155.436,192.680 155.384,183.000 155.384 C 173.320 155.384,169.417 155.436,174.327 155.500 M106.592 199.600 C 106.592 220.170,106.640 228.585,106.700 218.300 C 106.759 208.015,106.759 191.185,106.700 180.900 C 106.640 170.615,106.592 179.030,106.592 199.600 M155.309 166.400 C 155.309 167.390,155.387 167.795,155.482 167.300 C 155.578 166.805,155.578 165.995,155.482 165.500 C 155.387 165.005,155.309 165.410,155.309 166.400 M278.105 177.487 C 278.714 177.579,279.614 177.577,280.105 177.482 C 280.597 177.387,280.100 177.311,279.000 177.314 C 277.900 177.317,277.497 177.395,278.105 177.487 M293.328 189.200 C 293.328 190.630,293.401 191.215,293.489 190.500 C 293.578 189.785,293.578 188.615,293.489 187.900 C 293.401 187.185,293.328 187.770,293.328 189.200 M292.955 232.200 C 292.956 235.060,293.020 236.178,293.097 234.683 C 293.174 233.189,293.174 230.849,293.096 229.483 C 293.018 228.118,292.955 229.340,292.955 232.200 M155.301 232.600 C 155.305 233.480,155.387 233.793,155.483 233.295 C 155.579 232.798,155.575 232.078,155.475 231.695 C 155.375 231.313,155.296 231.720,155.301 232.600 M181.300 243.500 C 190.705 243.560,206.095 243.560,215.500 243.500 C 224.905 243.440,217.210 243.391,198.400 243.391 C 179.590 243.391,171.895 243.440,181.300 243.500 M233.700 243.476 C 234.085 243.576,234.715 243.576,235.100 243.476 C 235.485 243.375,235.170 243.293,234.400 243.293 C 233.630 243.293,233.315 243.375,233.700 243.476 " stroke="none" fill="#fcaf6c" fill-rule="evenodd"></path><path id="path4" d="M173.900 107.900 C 180.115 107.962,190.285 107.962,196.500 107.900 C 202.715 107.838,197.630 107.787,185.200 107.787 C 172.770 107.787,167.685 107.838,173.900 107.900 M174.300 177.500 C 178.975 177.564,186.625 177.564,191.300 177.500 C 195.975 177.436,192.150 177.383,182.800 177.383 C 173.450 177.383,169.625 177.436,174.300 177.500 M275.105 177.483 C 275.602 177.579,276.322 177.575,276.705 177.475 C 277.087 177.375,276.680 177.296,275.800 177.301 C 274.920 177.305,274.607 177.387,275.105 177.483 M292.960 221.400 C 292.961 224.700,293.022 225.997,293.098 224.282 C 293.173 222.567,293.172 219.867,293.097 218.282 C 293.021 216.697,292.959 218.100,292.960 221.400 " stroke="none" fill="#fcbc7c" fill-rule="evenodd"></path><path id="path5" d="M281.907 177.490 C 282.626 177.579,283.706 177.577,284.307 177.486 C 284.908 177.395,284.320 177.322,283.000 177.324 C 281.680 177.326,281.188 177.401,281.907 177.490 M293.361 197.600 C 293.361 201.010,293.422 202.405,293.497 200.700 C 293.572 198.995,293.572 196.205,293.497 194.500 C 293.422 192.795,293.361 194.190,293.361 197.600 M182.930 221.900 C 192.351 221.960,207.651 221.960,216.930 221.900 C 226.208 221.840,218.500 221.791,199.800 221.791 C 181.100 221.791,173.508 221.840,182.930 221.900 M244.114 232.600 C 244.117 233.700,244.195 234.103,244.287 233.495 C 244.379 232.886,244.377 231.986,244.282 231.495 C 244.187 231.003,244.111 231.500,244.114 232.600 M124.000 274.525 C 124.000 274.594,124.585 275.179,125.300 275.825 L 126.600 277.000 125.425 275.700 C 124.330 274.488,124.000 274.216,124.000 274.525 M161.705 291.487 C 162.314 291.579,163.214 291.577,163.705 291.482 C 164.197 291.387,163.700 291.311,162.600 291.314 C 161.500 291.317,161.097 291.395,161.705 291.487 M182.100 291.500 C 191.725 291.560,207.475 291.560,217.100 291.500 C 226.725 291.440,218.850 291.391,199.600 291.391 C 180.350 291.391,172.475 291.440,182.100 291.500 M236.105 291.487 C 236.714 291.579,237.614 291.577,238.105 291.482 C 238.597 291.387,238.100 291.311,237.000 291.314 C 235.900 291.317,235.497 291.395,236.105 291.487 " stroke="none" fill="#fc9c49" fill-rule="evenodd"></path><path id="path6" d="M159.000 108.400 L 157.400 108.686 158.800 108.696 C 159.570 108.701,160.740 108.568,161.400 108.400 C 163.028 107.986,161.313 107.986,159.000 108.400 M154.200 109.200 C 153.093 109.482,153.077 109.509,154.000 109.547 C 154.550 109.569,155.270 109.413,155.600 109.200 C 156.281 108.760,155.929 108.760,154.200 109.200 M212.000 109.182 C 212.330 109.405,212.945 109.591,213.367 109.594 C 214.390 109.602,214.071 109.373,212.600 109.044 C 211.724 108.848,211.562 108.885,212.000 109.182 M150.400 110.000 C 149.608 110.254,149.567 110.320,150.200 110.320 C 150.640 110.320,151.450 110.176,152.000 110.000 C 152.792 109.746,152.833 109.680,152.200 109.680 C 151.760 109.680,150.950 109.824,150.400 110.000 M145.000 111.814 C 144.000 112.296,143.966 112.351,144.800 112.148 C 145.933 111.871,147.207 111.221,146.600 111.230 C 146.380 111.233,145.660 111.496,145.000 111.814 M222.033 112.553 C 222.441 112.927,228.000 115.589,228.000 115.410 C 228.000 115.187,222.578 112.400,222.143 112.400 C 221.991 112.400,221.942 112.469,222.033 112.553 M138.300 114.629 C 136.749 115.470,136.925 115.761,138.500 114.959 C 140.008 114.193,140.275 113.994,139.767 114.016 C 139.565 114.025,138.905 114.301,138.300 114.629 M135.500 116.229 C 134.005 117.040,134.096 117.378,135.600 116.600 C 136.260 116.259,136.800 115.894,136.800 115.790 C 136.800 115.532,136.757 115.547,135.500 116.229 M228.400 115.779 C 228.400 115.889,228.940 116.259,229.600 116.600 C 230.260 116.941,230.800 117.131,230.800 117.021 C 230.800 116.911,230.260 116.541,229.600 116.200 C 228.940 115.859,228.400 115.669,228.400 115.779 M128.091 121.424 C 125.138 123.786,120.144 128.875,118.562 131.132 C 117.291 132.948,118.403 131.886,120.653 129.136 C 122.787 126.527,126.841 122.698,130.411 119.919 C 131.175 119.324,131.703 118.829,131.585 118.819 C 131.466 118.808,129.894 119.981,128.091 121.424 M234.800 119.725 C 234.800 119.824,235.461 120.409,236.268 121.025 C 237.076 121.641,237.611 121.941,237.456 121.691 C 237.140 121.179,234.800 119.447,234.800 119.725 M239.200 123.209 C 239.970 123.938,241.230 125.089,241.999 125.767 L 243.398 127.000 242.199 125.663 C 241.540 124.927,240.280 123.776,239.400 123.105 L 237.800 121.884 239.200 123.209 M246.022 130.000 C 248.899 133.482,249.668 134.289,248.498 132.600 C 248.041 131.940,246.739 130.410,245.605 129.200 C 243.770 127.242,243.816 127.329,246.022 130.000 M252.685 140.184 C 253.719 142.266,254.629 143.904,254.707 143.826 C 254.885 143.649,251.265 136.400,250.999 136.400 C 250.892 136.400,251.651 138.103,252.685 140.184 M113.600 138.800 C 113.151 139.680,112.874 140.400,112.984 140.400 C 113.094 140.400,113.551 139.680,114.000 138.800 C 114.449 137.920,114.726 137.200,114.616 137.200 C 114.506 137.200,114.049 137.920,113.600 138.800 M111.050 143.991 C 110.147 146.247,110.287 146.583,111.237 144.442 C 111.666 143.475,111.945 142.612,111.858 142.525 C 111.771 142.438,111.408 143.098,111.050 143.991 M254.863 144.600 C 254.862 144.820,255.103 145.630,255.400 146.400 C 255.697 147.170,255.945 147.530,255.952 147.200 C 255.958 146.870,255.717 146.060,255.414 145.400 C 255.112 144.740,254.864 144.380,254.863 144.600 M109.029 149.429 C 108.881 150.015,108.838 150.572,108.932 150.666 C 109.027 150.760,109.224 150.358,109.371 149.771 C 109.519 149.185,109.562 148.628,109.468 148.534 C 109.373 148.440,109.176 148.842,109.029 149.429 M108.222 152.622 C 108.072 153.425,108.028 154.162,108.126 154.260 C 108.224 154.357,108.427 153.781,108.578 152.978 C 108.728 152.175,108.772 151.438,108.674 151.340 C 108.576 151.243,108.373 151.819,108.222 152.622 M256.840 153.033 C 256.862 153.675,257.033 154.650,257.220 155.200 C 257.449 155.874,257.484 155.549,257.328 154.200 C 257.069 151.950,256.779 151.259,256.840 153.033 M107.660 155.667 C 107.627 156.254,107.496 157.064,107.370 157.467 C 107.152 158.160,107.165 158.161,107.595 157.490 C 107.846 157.099,107.977 156.289,107.886 155.690 L 107.720 154.600 107.660 155.667 M164.080 155.185 C 163.354 155.362,162.634 155.647,162.480 155.817 C 162.326 155.988,162.560 155.965,163.000 155.766 C 164.082 155.277,199.284 155.062,201.361 155.532 C 202.263 155.736,203.360 156.026,203.800 156.177 C 204.240 156.327,204.060 156.124,203.400 155.725 C 202.096 154.937,167.070 154.456,164.080 155.185 M205.600 157.164 C 206.150 157.614,206.780 157.983,207.000 157.985 C 207.428 157.988,206.705 157.434,205.400 156.760 C 204.869 156.485,204.936 156.621,205.600 157.164 M158.567 158.229 L 157.000 159.658 158.700 158.362 C 160.253 157.178,160.632 156.800,160.267 156.800 C 160.193 156.800,159.428 157.443,158.567 158.229 M257.701 158.600 C 257.705 159.480,257.787 159.793,257.883 159.295 C 257.979 158.798,257.975 158.078,257.875 157.695 C 257.775 157.313,257.696 157.720,257.701 158.600 M106.992 199.800 C 106.992 221.580,107.041 230.431,107.100 219.470 C 107.159 208.508,107.159 190.688,107.100 179.870 C 107.041 169.051,106.992 178.020,106.992 199.800 M155.665 162.217 C 155.409 162.778,155.208 163.544,155.218 163.919 C 155.227 164.293,155.489 163.887,155.800 163.015 C 156.445 161.204,156.359 160.694,155.665 162.217 M258.440 163.833 C 258.462 164.475,258.633 165.450,258.820 166.000 C 259.049 166.674,259.084 166.349,258.928 165.000 C 258.669 162.750,258.379 162.059,258.440 163.833 M154.909 166.400 C 154.909 167.390,154.987 167.795,155.082 167.300 C 155.178 166.805,155.178 165.995,155.082 165.500 C 154.987 165.005,154.909 165.410,154.909 166.400 M210.862 166.000 C 210.822 166.770,210.696 167.850,210.583 168.400 L 210.377 169.400 210.808 168.414 C 211.044 167.871,211.170 166.791,211.086 166.014 L 210.934 164.600 210.862 166.000 M259.206 168.233 C 259.209 168.655,259.395 169.270,259.618 169.600 C 259.915 170.038,259.952 169.876,259.756 169.000 C 259.427 167.529,259.198 167.210,259.206 168.233 M155.234 168.920 C 155.199 169.656,156.257 172.000,156.624 172.000 C 156.736 172.000,156.617 171.606,156.359 171.123 C 156.101 170.641,155.750 169.786,155.579 169.223 C 155.373 168.543,155.257 168.441,155.234 168.920 M207.377 173.837 C 205.081 176.291,205.053 176.749,207.333 174.533 C 208.577 173.326,209.956 171.494,209.514 171.637 C 209.451 171.657,208.489 172.647,207.377 173.837 M261.114 173.030 C 261.592 173.913,263.939 176.228,264.096 175.971 C 264.153 175.877,263.412 175.004,262.449 174.030 C 261.485 173.057,260.885 172.607,261.114 173.030 M159.829 175.589 C 160.693 176.243,161.562 176.783,161.760 176.789 C 161.958 176.795,161.375 176.260,160.463 175.600 C 158.316 174.044,157.775 174.035,159.829 175.589 M201.000 177.200 L 199.400 177.486 200.800 177.537 C 201.570 177.565,202.470 177.413,202.800 177.200 C 203.455 176.777,203.362 176.777,201.000 177.200 M268.000 177.220 C 269.003 177.521,274.680 177.729,274.367 177.453 C 274.275 177.372,272.580 177.219,270.600 177.112 C 268.620 177.006,267.450 177.054,268.000 177.220 M164.100 177.476 C 164.485 177.576,165.115 177.576,165.500 177.476 C 165.885 177.375,165.570 177.293,164.800 177.293 C 164.030 177.293,163.715 177.375,164.100 177.476 M277.400 177.799 C 277.620 177.874,279.870 178.009,282.400 178.098 C 284.930 178.188,286.460 178.134,285.800 177.978 C 284.627 177.701,276.610 177.530,277.400 177.799 M289.527 180.086 C 290.447 180.793,291.200 181.592,291.200 181.862 C 291.200 182.132,291.363 182.454,291.563 182.577 C 291.762 182.700,291.836 182.458,291.726 182.038 C 291.535 181.307,288.767 178.800,288.151 178.800 C 287.988 178.800,288.607 179.379,289.527 180.086 M292.981 200.600 C 292.981 208.960,293.034 212.437,293.099 208.326 C 293.164 204.216,293.164 197.376,293.100 193.126 C 293.035 188.877,292.982 192.240,292.981 200.600 M163.515 221.528 C 163.138 221.678,179.428 221.800,199.715 221.800 C 234.436 221.800,236.682 221.842,238.000 222.519 C 239.006 223.036,239.180 223.063,238.618 222.616 C 238.189 222.273,237.199 221.815,236.418 221.599 C 234.811 221.152,164.633 221.084,163.515 221.528 M159.943 223.312 C 158.130 224.694,155.599 227.737,155.601 228.531 C 155.602 228.789,155.981 228.370,156.443 227.600 C 157.659 225.575,158.765 224.439,160.778 223.144 C 161.756 222.515,162.355 222.000,162.109 222.000 C 161.863 222.000,160.888 222.590,159.943 223.312 M240.603 224.254 C 241.264 224.884,242.222 225.940,242.732 226.600 C 243.817 228.004,243.426 227.114,242.246 225.494 C 241.803 224.885,240.981 224.099,240.420 223.747 C 239.529 223.188,239.552 223.252,240.603 224.254 M154.984 230.968 C 154.669 233.069,155.018 235.418,155.852 236.800 C 156.252 237.462,156.364 237.530,156.184 237.000 C 155.318 234.442,155.137 233.197,155.359 231.308 C 155.659 228.757,155.356 228.483,154.984 230.968 M244.328 231.802 C 244.441 233.577,244.291 234.890,243.849 235.993 C 243.496 236.877,243.293 237.600,243.398 237.600 C 244.375 237.600,245.280 230.975,244.475 229.708 C 244.304 229.438,244.237 230.380,244.328 231.802 M292.253 237.636 C 292.114 238.331,292.023 239.553,292.051 240.350 C 292.085 241.330,292.210 240.963,292.435 239.218 C 292.789 236.483,292.677 235.513,292.253 237.636 M156.717 238.600 C 156.945 239.040,157.732 239.940,158.466 240.599 L 159.800 241.798 158.401 240.199 C 157.632 239.320,156.845 238.420,156.652 238.200 C 156.460 237.980,156.489 238.160,156.717 238.600 M241.407 239.913 C 240.531 240.951,240.171 241.530,240.607 241.200 C 241.523 240.507,242.242 239.695,242.821 238.700 C 243.469 237.587,243.114 237.891,241.407 239.913 M107.438 242.600 C 107.770 244.584,108.002 244.904,107.994 243.367 C 107.991 242.725,107.804 241.930,107.579 241.600 C 107.286 241.170,107.246 241.454,107.438 242.600 M160.000 241.796 C 160.000 242.070,162.449 243.284,162.632 243.101 C 162.719 243.014,162.162 242.644,161.395 242.278 C 160.628 241.912,160.000 241.695,160.000 241.796 M291.418 243.818 C 291.265 244.839,291.222 245.755,291.322 245.855 C 291.422 245.955,291.629 245.202,291.782 244.182 C 291.935 243.161,291.978 242.245,291.878 242.145 C 291.778 242.045,291.571 242.798,291.418 243.818 M182.130 243.900 C 191.992 243.960,208.012 243.959,217.730 243.900 C 227.449 243.840,219.380 243.791,199.800 243.792 C 180.220 243.792,172.269 243.840,182.130 243.900 M290.600 247.600 C 290.448 248.291,290.407 248.941,290.509 249.042 C 290.611 249.144,290.809 248.653,290.950 247.950 C 291.091 247.247,291.131 246.598,291.041 246.508 C 290.950 246.417,290.752 246.909,290.600 247.600 M108.856 248.800 C 108.856 249.130,109.011 249.760,109.200 250.200 C 109.417 250.704,109.544 250.778,109.544 250.400 C 109.544 250.070,109.389 249.440,109.200 249.000 C 108.983 248.496,108.856 248.422,108.856 248.800 M288.715 253.410 C 288.592 253.845,288.369 254.560,288.220 255.000 C 288.071 255.440,288.242 255.294,288.600 254.676 C 288.958 254.058,289.181 253.342,289.095 253.086 C 289.010 252.830,288.839 252.976,288.715 253.410 M110.418 253.350 C 110.392 253.850,112.487 258.446,112.662 258.271 C 112.742 258.191,112.274 256.972,111.622 255.563 C 110.970 254.153,110.428 253.157,110.418 253.350 M113.600 260.400 C 114.049 261.280,114.506 262.000,114.616 262.000 C 114.726 262.000,114.449 261.280,114.000 260.400 C 113.551 259.520,113.094 258.800,112.984 258.800 C 112.874 258.800,113.151 259.520,113.600 260.400 M282.637 265.100 C 281.825 266.365,281.579 266.908,282.090 266.306 C 283.100 265.118,284.547 262.800,284.279 262.800 C 284.188 262.800,283.449 263.835,282.637 265.100 M118.730 268.300 C 119.161 268.905,119.929 269.760,120.437 270.200 C 120.945 270.640,120.672 270.145,119.832 269.100 C 118.174 267.039,117.463 266.522,118.730 268.300 M122.422 272.636 C 123.180 273.425,124.880 274.989,126.200 276.110 C 127.694 277.379,127.241 276.839,125.000 274.680 C 121.345 271.157,119.910 270.020,122.422 272.636 M271.376 277.321 C 270.263 278.244,268.733 279.507,267.976 280.126 C 266.705 281.166,266.737 281.158,268.400 280.027 C 270.235 278.778,273.963 275.631,273.600 275.638 C 273.490 275.640,272.489 276.397,271.376 277.321 M128.944 278.309 C 129.260 278.821,131.600 280.553,131.600 280.275 C 131.600 280.176,130.939 279.591,130.132 278.975 C 129.324 278.359,128.789 278.059,128.944 278.309 M263.657 282.617 C 262.478 283.352,261.398 284.076,261.257 284.225 C 260.845 284.661,264.921 282.525,265.800 281.845 C 267.208 280.755,265.872 281.236,263.657 282.617 M134.400 282.141 C 134.400 282.408,138.090 284.443,138.263 284.271 C 138.340 284.193,137.503 283.639,136.402 283.040 C 135.301 282.440,134.400 282.036,134.400 282.141 M257.200 286.000 C 256.430 286.422,255.980 286.766,256.200 286.766 C 256.420 286.766,257.230 286.422,258.000 286.000 C 258.770 285.578,259.220 285.234,259.000 285.234 C 258.780 285.234,257.970 285.578,257.200 286.000 M148.400 288.600 C 149.170 288.897,150.160 289.141,150.600 289.143 C 151.040 289.145,150.590 288.891,149.600 288.579 C 147.339 287.867,146.533 287.881,148.400 288.600 M249.200 288.800 C 248.376 289.064,248.341 289.126,249.000 289.154 C 249.440 289.173,250.070 289.013,250.400 288.800 C 251.101 288.347,250.614 288.347,249.200 288.800 M158.105 290.687 C 158.714 290.779,159.614 290.777,160.105 290.682 C 160.597 290.587,160.100 290.511,159.000 290.514 C 157.900 290.517,157.497 290.595,158.105 290.687 M239.300 290.687 C 239.905 290.778,240.895 290.778,241.500 290.687 C 242.105 290.595,241.610 290.520,240.400 290.520 C 239.190 290.520,238.695 290.595,239.300 290.687 M180.470 291.100 C 190.958 291.159,208.238 291.159,218.870 291.100 C 229.501 291.041,220.920 290.992,199.800 290.992 C 178.680 290.992,169.981 291.041,180.470 291.100 " stroke="none" fill="#fcbc8c" fill-rule="evenodd"></path><path id="path7" d="M157.852 107.916 C 157.744 108.090,158.273 108.161,159.028 108.073 C 159.783 107.985,160.400 107.842,160.400 107.756 C 160.400 107.455,158.045 107.603,157.852 107.916 M126.894 121.612 C 126.175 122.265,125.737 122.800,125.919 122.800 C 126.101 122.800,126.768 122.260,127.400 121.600 C 128.870 120.065,128.586 120.072,126.894 121.612 M257.444 152.600 C 257.773 154.071,258.002 154.390,257.994 153.367 C 257.991 152.945,257.805 152.330,257.582 152.000 C 257.285 151.562,257.248 151.724,257.444 152.600 M107.067 154.667 C 106.920 154.813,106.815 155.398,106.834 155.967 C 106.868 156.981,106.875 156.979,107.221 155.820 C 107.585 154.603,107.531 154.202,107.067 154.667 M163.738 155.906 C 163.484 156.068,172.152 156.200,183.000 156.200 C 193.848 156.200,202.516 156.068,202.262 155.906 C 202.008 155.744,193.340 155.612,183.000 155.612 C 172.660 155.612,163.992 155.744,163.738 155.906 M106.192 199.600 C 106.192 220.830,106.241 229.515,106.300 218.900 C 106.359 208.285,106.359 190.915,106.300 180.300 C 106.241 169.685,106.192 178.370,106.192 199.600 M258.846 163.200 C 258.827 163.750,258.987 164.470,259.200 164.800 C 259.694 165.564,259.694 164.742,259.200 163.200 L 258.880 162.200 258.846 163.200 M210.114 166.200 C 210.117 167.300,210.195 167.703,210.287 167.095 C 210.379 166.486,210.377 165.586,210.282 165.095 C 210.187 164.603,210.111 165.100,210.114 166.200 M206.975 173.700 L 205.800 175.000 207.100 173.825 C 207.815 173.179,208.400 172.594,208.400 172.525 C 208.400 172.216,208.070 172.488,206.975 173.700 M164.000 176.794 C 164.330 177.011,165.035 177.191,165.567 177.194 C 166.851 177.202,166.525 176.975,164.800 176.658 C 163.815 176.477,163.578 176.518,164.000 176.794 M184.600 176.800 L 167.400 177.013 184.400 177.100 C 194.853 177.154,201.631 177.038,202.000 176.800 C 202.330 176.587,202.420 176.452,202.200 176.500 C 201.980 176.548,194.060 176.683,184.600 176.800 M269.600 176.783 C 270.574 177.111,275.099 177.347,274.767 177.052 C 274.675 176.971,273.250 176.801,271.600 176.675 C 269.754 176.534,268.985 176.575,269.600 176.783 M285.800 177.600 C 286.240 177.789,286.870 177.944,287.200 177.944 C 287.578 177.944,287.504 177.817,287.000 177.600 C 286.560 177.411,285.930 177.256,285.600 177.256 C 285.222 177.256,285.296 177.383,285.800 177.600 M293.364 200.741 C 293.336 212.624,293.389 214.324,293.616 208.800 C 294.013 199.099,294.061 186.084,293.700 185.865 C 293.535 185.765,293.384 192.459,293.364 200.741 M243.724 232.600 C 243.726 233.920,243.801 234.412,243.890 233.693 C 243.979 232.974,243.977 231.894,243.886 231.293 C 243.795 230.692,243.722 231.280,243.724 232.600 M240.575 240.100 L 239.400 241.400 240.700 240.225 C 241.415 239.579,242.000 238.994,242.000 238.925 C 242.000 238.616,241.670 238.888,240.575 240.100 M292.864 239.667 C 292.829 240.254,292.684 241.064,292.541 241.467 C 292.343 242.029,292.396 242.095,292.770 241.751 C 293.044 241.499,293.186 240.709,293.093 239.951 C 292.959 238.853,292.916 238.800,292.864 239.667 M106.800 243.310 C 106.800 243.883,106.987 244.468,107.216 244.610 C 107.489 244.779,107.538 244.477,107.360 243.734 C 106.992 242.201,106.800 242.056,106.800 243.310 M182.100 243.100 C 191.945 243.159,208.055 243.159,217.900 243.100 C 227.745 243.040,219.690 242.992,200.000 242.992 C 180.310 242.992,172.255 243.040,182.100 243.100 M282.399 266.500 C 281.810 267.304,281.713 267.584,282.145 267.233 C 282.801 266.700,283.793 265.200,283.489 265.200 C 283.413 265.200,282.922 265.785,282.399 266.500 M156.833 290.949 C 156.925 291.031,157.900 291.201,159.000 291.328 C 160.349 291.484,160.674 291.449,160.000 291.220 C 159.001 290.880,156.518 290.668,156.833 290.949 M239.600 291.220 C 238.926 291.449,239.251 291.484,240.600 291.328 C 241.700 291.201,242.675 291.031,242.767 290.949 C 243.082 290.668,240.599 290.880,239.600 291.220 " stroke="none" fill="#fc9338" fill-rule="evenodd"></path><path id="path8" d="M104.201 25.998 C 104.059 26.227,102.082 26.400,99.600 26.400 C 97.130 26.400,95.140 26.573,95.000 26.800 C 94.864 27.020,93.514 27.200,92.000 27.200 C 90.486 27.200,89.136 27.380,89.000 27.600 C 88.864 27.820,87.964 28.000,87.000 28.000 C 86.036 28.000,85.136 28.180,85.000 28.400 C 84.864 28.620,84.054 28.800,83.200 28.800 C 82.346 28.800,81.536 28.980,81.400 29.200 C 81.264 29.420,80.634 29.600,80.000 29.600 C 79.366 29.600,78.736 29.780,78.600 30.000 C 78.464 30.220,77.924 30.400,77.400 30.400 C 76.876 30.400,76.336 30.580,76.200 30.800 C 76.064 31.020,75.601 31.200,75.172 31.200 C 73.415 31.200,60.921 37.384,60.467 38.479 C 60.393 38.656,59.988 38.800,59.567 38.800 C 59.145 38.800,58.800 38.971,58.800 39.181 C 58.800 39.390,57.945 40.146,56.900 40.859 C 55.855 41.573,54.523 42.662,53.940 43.279 C 53.356 43.895,52.697 44.400,52.475 44.400 C 51.954 44.400,44.400 51.946,44.400 52.467 C 44.400 52.685,43.680 53.554,42.800 54.400 C 41.920 55.246,41.200 56.112,41.200 56.326 C 41.200 56.540,40.660 57.293,40.000 58.000 C 39.340 58.707,38.800 59.521,38.800 59.809 C 38.800 60.097,38.656 60.393,38.479 60.467 C 37.357 60.933,31.200 73.371,31.200 75.172 C 31.200 75.601,31.020 76.064,30.800 76.200 C 30.580 76.336,30.400 76.876,30.400 77.400 C 30.400 77.924,30.220 78.464,30.000 78.600 C 29.780 78.736,29.600 79.366,29.600 80.000 C 29.600 80.634,29.420 81.264,29.200 81.400 C 28.980 81.536,28.800 82.346,28.800 83.200 C 28.800 84.054,28.620 84.864,28.400 85.000 C 28.180 85.136,28.000 86.036,28.000 87.000 C 28.000 87.964,27.820 88.864,27.600 89.000 C 27.380 89.136,27.200 90.486,27.200 92.000 C 27.200 93.514,27.020 94.864,26.800 95.000 C 26.573 95.140,26.400 97.130,26.400 99.600 C 26.400 102.070,26.227 104.060,26.000 104.200 C 25.735 104.364,25.600 136.730,25.600 200.000 C 25.600 263.270,25.735 295.636,26.000 295.800 C 26.229 295.941,26.400 297.996,26.400 300.600 C 26.400 303.204,26.571 305.259,26.800 305.400 C 27.020 305.536,27.200 306.796,27.200 308.200 C 27.200 309.604,27.380 310.864,27.600 311.000 C 27.820 311.136,28.000 312.036,28.000 313.000 C 28.000 313.964,28.180 314.864,28.400 315.000 C 28.620 315.136,28.800 315.946,28.800 316.800 C 28.800 317.654,28.980 318.464,29.200 318.600 C 29.420 318.736,29.600 319.366,29.600 320.000 C 29.600 320.634,29.780 321.264,30.000 321.400 C 30.220 321.536,30.400 322.166,30.400 322.800 C 30.400 323.434,30.580 324.064,30.800 324.200 C 31.020 324.336,31.200 324.709,31.200 325.028 C 31.200 325.706,32.229 328.125,34.420 332.600 C 36.687 337.230,39.495 342.000,39.953 342.000 C 40.104 342.000,40.527 342.508,40.894 343.128 C 41.260 343.748,42.199 344.953,42.980 345.806 C 43.761 346.659,44.400 347.503,44.400 347.683 C 44.400 348.129,51.899 355.600,52.347 355.600 C 52.543 355.600,53.445 356.320,54.352 357.200 C 55.259 358.080,56.154 358.800,56.341 358.800 C 56.528 358.800,57.246 359.340,57.937 360.000 C 58.628 360.660,59.382 361.200,59.613 361.200 C 59.844 361.200,60.388 361.531,60.822 361.935 C 61.494 362.561,63.285 363.574,69.200 366.671 C 69.750 366.959,70.479 367.196,70.820 367.198 C 71.161 367.199,71.611 367.362,71.820 367.559 C 72.362 368.072,79.332 370.400,80.324 370.400 C 80.780 370.400,81.252 370.561,81.374 370.758 C 81.584 371.098,82.640 371.317,86.500 371.823 C 87.435 371.945,88.560 372.208,89.000 372.406 C 89.440 372.604,90.970 372.866,92.400 372.988 C 93.830 373.109,96.980 373.411,99.400 373.657 C 105.548 374.284,294.347 374.291,300.600 373.665 C 306.502 373.074,310.545 372.541,313.200 372.004 C 314.410 371.760,316.076 371.459,316.903 371.337 C 317.729 371.215,318.505 370.955,318.626 370.758 C 318.748 370.561,319.229 370.400,319.695 370.400 C 320.596 370.400,322.939 369.735,324.095 369.151 C 324.477 368.958,324.980 368.800,325.214 368.800 C 325.448 368.800,326.384 368.440,327.294 368.000 C 328.205 367.560,329.146 367.200,329.386 367.200 C 329.626 367.200,330.897 366.636,332.211 365.946 C 333.525 365.256,335.627 364.160,336.881 363.509 C 338.136 362.859,339.373 362.074,339.630 361.764 C 339.887 361.454,340.302 361.200,340.550 361.200 C 340.799 361.200,341.512 360.660,342.135 360.000 C 342.758 359.340,343.461 358.800,343.696 358.800 C 343.932 358.800,344.831 358.080,345.693 357.200 C 346.556 356.320,347.452 355.600,347.685 355.600 C 348.252 355.600,355.600 348.330,355.600 347.769 C 355.600 347.526,356.320 346.593,357.200 345.695 C 358.080 344.797,358.800 343.895,358.800 343.691 C 358.800 343.486,359.340 342.754,360.000 342.063 C 360.660 341.372,361.200 340.648,361.200 340.453 C 361.200 340.258,361.451 339.890,361.757 339.636 C 362.063 339.381,363.127 337.604,364.120 335.687 C 365.114 333.769,366.212 331.660,366.561 331.000 C 366.910 330.340,367.196 329.609,367.198 329.375 C 367.199 329.141,367.560 328.205,368.000 327.294 C 368.440 326.384,368.800 325.448,368.800 325.214 C 368.800 324.980,368.958 324.477,369.151 324.095 C 369.735 322.939,370.400 320.596,370.400 319.695 C 370.400 319.229,370.561 318.748,370.758 318.626 C 370.955 318.505,371.215 317.729,371.337 316.903 C 371.459 316.076,371.762 314.410,372.011 313.200 C 372.259 311.990,372.545 309.920,372.648 308.600 C 372.750 307.280,372.999 305.840,373.201 305.400 C 374.551 302.460,374.551 97.540,373.201 94.600 C 372.999 94.160,372.743 92.720,372.632 91.400 C 372.281 87.212,371.933 85.011,371.561 84.620 C 371.363 84.411,371.200 83.657,371.200 82.944 C 371.200 82.231,371.020 81.536,370.800 81.400 C 370.580 81.264,370.400 80.771,370.400 80.305 C 370.400 79.404,369.735 77.061,369.151 75.905 C 368.958 75.523,368.800 75.020,368.800 74.786 C 368.800 74.552,368.440 73.616,368.000 72.706 C 367.560 71.795,367.200 70.854,367.200 70.614 C 367.200 70.205,366.593 68.969,363.760 63.604 C 363.122 62.395,362.285 61.057,361.900 60.628 C 361.515 60.200,361.200 59.701,361.200 59.521 C 361.200 59.340,360.660 58.628,360.000 57.937 C 359.340 57.246,358.800 56.528,358.800 56.341 C 358.800 56.154,358.080 55.259,357.200 54.352 C 356.320 53.445,355.600 52.527,355.600 52.312 C 355.600 51.834,348.120 44.400,347.639 44.400 C 347.451 44.400,346.555 43.680,345.648 42.800 C 344.741 41.920,343.846 41.200,343.659 41.200 C 343.472 41.200,342.754 40.660,342.063 40.000 C 341.372 39.340,340.735 38.800,340.647 38.800 C 340.559 38.800,338.884 37.855,336.924 36.700 C 334.965 35.545,332.380 34.168,331.181 33.641 C 329.981 33.113,328.237 32.348,327.304 31.941 C 326.372 31.533,325.257 31.200,324.828 31.200 C 324.399 31.200,323.936 31.020,323.800 30.800 C 323.664 30.580,323.124 30.400,322.600 30.400 C 322.076 30.400,321.536 30.220,321.400 30.000 C 321.264 29.780,320.634 29.600,320.000 29.600 C 319.366 29.600,318.736 29.420,318.600 29.200 C 318.464 28.980,317.654 28.800,316.800 28.800 C 315.946 28.800,315.136 28.620,315.000 28.400 C 314.864 28.180,313.964 28.000,313.000 28.000 C 312.036 28.000,311.136 27.820,311.000 27.600 C 310.864 27.380,309.539 27.200,308.056 27.200 C 306.573 27.200,305.189 27.031,304.980 26.825 C 304.029 25.885,104.778 25.065,104.201 25.998 M291.600 26.406 C 299.844 26.893,306.535 27.505,309.600 28.053 C 315.016 29.022,316.427 29.323,320.000 30.276 C 327.039 32.152,337.019 36.655,339.529 39.088 C 339.819 39.369,340.211 39.600,340.400 39.600 C 340.589 39.600,340.981 39.825,341.271 40.100 C 341.562 40.375,342.878 41.410,344.195 42.400 C 350.248 46.948,359.180 56.848,362.422 62.600 C 369.980 76.012,372.222 85.079,373.599 107.800 C 374.159 117.048,374.159 282.952,373.599 292.200 C 372.561 309.319,370.908 318.533,367.210 327.800 C 365.788 331.364,363.187 336.528,362.709 336.733 C 362.539 336.807,362.400 337.044,362.400 337.261 C 362.400 337.626,360.494 340.572,359.341 341.991 C 359.069 342.326,357.693 344.040,356.284 345.800 C 345.535 359.222,331.332 367.738,314.000 371.153 C 299.982 373.915,296.532 374.001,200.192 373.994 C 107.547 373.987,102.653 373.895,90.400 371.945 C 78.720 370.086,72.294 367.885,62.600 362.422 C 56.847 359.180,46.943 350.243,42.401 344.195 C 41.412 342.878,40.503 341.710,40.382 341.600 C 37.240 338.748,31.102 324.808,29.374 316.600 C 26.172 301.394,26.200 302.431,26.200 200.400 C 26.200 99.918,26.212 99.405,28.859 86.000 C 34.620 56.820,57.250 34.188,86.000 28.855 C 91.471 27.840,92.867 27.633,97.000 27.229 C 99.420 26.991,103.920 26.647,107.000 26.463 C 115.427 25.959,283.147 25.907,291.600 26.406 " stroke="none" fill="#cc6414" fill-rule="evenodd"></path></g></svg>