<svg id="svg" xmlns="http://www.w3.org/2000/svg" xmlns:xlink="http://www.w3.org/1999/xlink" width="400" height="400" viewBox="0, 0, 400,400"><g id="svgg"><path id="path0" d="M51.402 144.073 C 24.742 172.977,2.827 196.904,2.702 197.244 C 2.414 198.026,2.622 198.872,3.256 199.506 C 3.925 200.175,151.792 200.287,156.471 199.622 C 176.236 196.813,192.632 182.593,198.120 163.500 C 199.970 157.064,199.859 159.500,199.940 123.688 L 200.013 91.500 149.944 91.510 L 99.875 91.521 51.402 144.073 " stroke="none" fill="#fcb704" fill-rule="evenodd"></path><path id="path1" d="M156.561 235.548 C 143.121 248.912,123.013 268.923,111.875 280.018 L 91.625 300.190 144.125 348.629 C 173.001 375.270,196.896 397.168,197.227 397.290 C 197.991 397.573,199.415 397.125,199.752 396.496 C 200.212 395.637,200.080 246.747,199.617 243.532 C 198.379 234.952,195.139 227.169,189.799 219.943 C 187.997 217.506,181.904 211.250,181.331 211.250 C 181.147 211.250,170.000 222.184,156.561 235.548 " stroke="none" fill="#8bc34c" fill-rule="evenodd"></path><path id="path2" d="M201.125 2.778 C 200.850 2.934,200.484 3.238,200.313 3.454 C 199.793 4.105,199.862 152.854,200.383 156.468 C 201.626 165.084,204.841 172.802,210.222 180.088 C 211.809 182.236,217.557 188.253,218.484 188.736 C 218.896 188.951,308.275 100.403,308.178 99.875 C 308.144 99.688,206.239 5.480,203.594 3.190 C 202.936 2.620,201.752 2.423,201.125 2.778 " stroke="none" fill="#f34334" fill-rule="evenodd"></path><path id="path3" d="M243.250 200.406 C 234.854 201.667,227.050 204.947,219.943 210.202 C 217.835 211.760,211.727 217.595,211.256 218.500 C 211.048 218.898,299.847 308.504,300.197 308.250 C 300.955 307.701,397.107 203.251,397.284 202.785 C 397.577 202.016,397.133 200.589,396.496 200.248 C 395.681 199.812,246.182 199.965,243.250 200.406 " stroke="none" fill="#438bfb" fill-rule="evenodd"></path><path id="path4" d="M209.707 220.563 C 205.288 226.622,202.858 232.069,201.146 239.750 C 200.009 244.852,200.000 245.147,200.000 277.575 L 200.000 308.500 250.050 308.500 L 300.100 308.500 292.481 300.813 C 264.324 272.403,211.143 219.000,211.009 219.000 C 210.919 219.000,210.334 219.703,209.707 220.563 " stroke="none" fill="#1464c4" fill-rule="evenodd"></path><path id="path5" d="M263.675 144.399 C 239.104 168.818,219.000 188.881,219.000 188.984 C 219.000 189.179,222.149 191.486,223.897 192.571 C 229.385 195.978,235.815 198.325,243.000 199.546 C 244.106 199.733,254.834 199.852,276.563 199.916 L 308.500 200.011 308.500 150.006 C 308.500 122.502,308.466 100.000,308.425 100.000 C 308.384 100.000,288.247 119.979,263.675 144.399 " stroke="none" fill="#ac1454" fill-rule="evenodd"></path><path id="path6" d="M91.750 249.908 L 91.750 299.815 108.950 282.720 C 118.410 273.318,138.483 253.370,153.556 238.392 L 180.963 211.158 180.294 210.507 C 179.926 210.149,179.548 209.890,179.455 209.932 C 179.361 209.974,179.108 209.756,178.892 209.449 C 178.676 209.141,178.500 208.972,178.500 209.073 C 178.500 209.174,178.050 208.959,177.500 208.595 C 176.950 208.231,176.500 207.829,176.500 207.702 C 176.500 207.575,176.392 207.537,176.259 207.619 C 176.127 207.701,175.789 207.539,175.509 207.259 C 175.229 206.979,174.943 206.752,174.873 206.753 C 174.590 206.761,172.119 205.420,172.041 205.217 C 171.995 205.096,171.854 205.060,171.729 205.138 C 171.603 205.216,171.500 205.154,171.500 205.000 C 171.500 204.846,171.387 204.790,171.250 204.875 C 171.113 204.960,171.000 204.904,171.000 204.750 C 171.000 204.596,170.887 204.540,170.750 204.625 C 170.613 204.710,170.500 204.684,170.500 204.568 C 170.500 204.452,170.275 204.339,170.000 204.319 C 169.725 204.298,168.788 203.931,167.919 203.503 C 167.049 203.075,166.009 202.681,165.607 202.628 C 165.204 202.575,164.413 202.366,163.849 202.164 C 163.284 201.963,161.878 201.606,160.724 201.372 C 159.569 201.138,158.528 200.888,158.410 200.816 C 158.292 200.745,157.786 200.657,157.285 200.620 C 156.785 200.584,154.800 200.430,152.875 200.279 C 150.613 200.102,139.186 200.004,120.563 200.002 L 91.750 200.000 91.750 249.908 " stroke="none" fill="#04948b" fill-rule="evenodd"></path><path id="path7" d="M91.623 250.000 C 91.623 277.569,91.652 288.847,91.687 275.063 C 91.723 261.278,91.723 238.722,91.687 224.938 C 91.652 211.153,91.623 222.431,91.623 250.000 M151.563 200.182 C 152.078 200.236,152.922 200.236,153.438 200.182 C 153.953 200.128,153.531 200.084,152.500 200.084 C 151.469 200.084,151.047 200.128,151.563 200.182 M176.500 207.828 C 176.500 207.886,176.978 208.249,177.563 208.634 C 178.147 209.020,178.493 209.175,178.332 208.980 C 178.022 208.605,176.500 207.647,176.500 207.828 M155.249 236.688 L 147.375 244.625 155.313 236.751 C 162.689 229.434,163.363 228.750,163.186 228.750 C 163.151 228.750,159.579 232.322,155.249 236.688 M113.123 278.563 L 105.375 286.375 113.188 278.627 C 120.448 271.425,121.113 270.750,120.936 270.750 C 120.901 270.750,117.385 274.266,113.123 278.563 " stroke="none" fill="#38a86e" fill-rule="evenodd"></path><path id="path8" d="M177.871 214.313 L 174.625 217.625 177.938 214.379 C 181.015 211.363,181.363 211.000,181.184 211.000 C 181.148 211.000,179.657 212.491,177.871 214.313 M139.998 251.938 L 132.625 259.375 140.063 252.002 C 146.974 245.149,147.613 244.500,147.436 244.500 C 147.401 244.500,144.054 247.847,139.998 251.938 M98.498 293.188 L 91.625 300.125 98.563 293.252 C 102.378 289.471,105.500 286.350,105.500 286.314 C 105.500 286.137,104.886 286.741,98.498 293.188 " stroke="none" fill="#56b464" fill-rule="evenodd"></path></g></svg>